<svg width="1676" height="1320" viewBox="0 0 1676 1320" fill="none" xmlns="http://www.w3.org/2000/svg">
<g clip-path="url(#clip0_23_5)">
<path d="M53.0615 13.0664C62.5047 12.6163 70.6077 13.3474 80.9697 13.3623H80.9727L147.249 13.4453H147.284L230.385 13.3193H230.402C242.196 13.2848 254.875 13.3872 266.635 13.2334C284.088 13.0054 300.789 26.5939 307.107 44.7373V44.7383C310.52 54.5422 314.076 64.7086 317.514 74.7627L318.979 79.0625L340.774 143.854C346.43 161.199 353.548 179.907 359.241 196.55C369.647 226.965 378.547 262.46 392.424 293.788L392.425 293.789C392.983 295.05 393.271 296.353 393.471 298.062C393.592 299.1 393.632 299.756 393.765 301.124C393.87 302.211 394.045 303.868 394.453 305.583C395.409 309.596 397.99 315.037 404.534 317.755C409.324 319.744 414.561 319.431 418.768 318.849C432.577 317.497 455.591 317.67 471.617 317.889L478.039 317.981C483.475 318.062 507.378 317.592 528.995 317.564C540.073 317.551 550.763 317.647 558.862 317.969C562.913 318.129 566.083 318.338 568.247 318.582C641.101 387.898 710.748 461.502 777.785 536.738L784.333 544.102C792.148 552.907 800.213 564.53 808.976 576.822C817.397 588.635 826.581 601.239 835.893 610.178L857.148 630.583L857.049 601.118C856.956 573.516 853.643 543.164 851.643 516.563L841.248 377.219H841.249C840.788 371.017 839.466 356.023 838.42 340.8C837.903 333.275 837.474 325.953 837.275 320.021C837.251 319.298 837.231 318.603 837.214 317.936C841.111 317.725 845.834 317.615 850.814 317.575C863.109 317.478 874.852 317.782 879.63 317.788H879.643L963.097 317.807H963.126L1016.93 317.695H1016.94C1022.08 317.678 1029.33 317.323 1037.21 317.539C1040.02 317.616 1042.59 317.766 1044.79 318C1045.84 334.571 1045.27 358.243 1045.4 374.522V374.548L1046.57 494.813V494.835L1051.32 909.645C1051.33 912.544 1051.43 919.154 1051.35 925.729C1051.32 928.197 1051.26 930.549 1051.17 932.591C1051.13 932.591 1051.09 932.592 1051.05 932.592C1050.75 932.594 1050.42 932.596 1050.07 932.6C1010.51 932.62 970.945 932.843 931.381 933.268H931.378C911.536 933.485 890.126 934.32 871.498 933.229C870.903 932.681 870.141 931.929 869.211 930.94C866.268 927.814 862.639 923.401 858.827 918.497C851.965 909.668 845.8 900.975 842.156 896.006L840.755 894.114C819.442 865.686 797.942 837.398 776.256 809.253L776.23 809.221L776.205 809.188C723.998 742.342 663.007 671.842 607.214 608.928L575.128 572.746L585.662 619.944C602.577 695.733 618.573 771.724 633.646 847.899L633.655 847.944L633.665 847.989C640.035 878.988 647.284 906.486 652.906 936.39C642.494 936.845 631.62 936.592 620.343 936.594H620.344L556.306 936.577H556.307C540.55 936.565 524.705 936.558 509.046 936.39C506.572 936.363 503.449 936.537 500.559 936.708C497.479 936.89 494.345 937.089 491.263 937.2C488.386 937.304 485.867 937.313 483.839 937.194C483.666 936.785 483.477 936.324 483.278 935.803C482.198 932.968 481.132 929.411 480.094 925.453C479.064 921.529 478.127 917.463 477.259 913.634C476.42 909.937 475.595 906.222 474.868 903.448L472.618 894.901C467.342 874.967 461.885 855.082 456.251 835.248L341.571 427.017C339.023 417.636 336.729 407.823 334.365 397.713C332.02 387.683 329.607 377.365 326.883 367.354L326.882 367.353C326.241 364.999 325.69 361.528 325.004 356.914C324.418 352.972 323.734 348.206 322.8 344.009L322.61 343.177C319.9 331.642 317.046 322.493 313.655 312.179L312.168 307.677C311.418 305.411 310.772 302.417 309.91 298.343C309.124 294.624 308.155 290.011 306.802 285.812H306.803C298.252 259.273 289.094 232.906 280.001 206.701C270.892 180.45 261.847 154.358 253.438 128.143C253.112 127.124 252.587 125.271 251.819 122.59C251.094 120.058 250.217 117.022 249.29 114.067C248.382 111.173 247.335 108.057 246.248 105.448C245.715 104.169 245.036 102.677 244.209 101.283C243.794 100.583 243.204 99.6755 242.423 98.752C241.729 97.9317 240.34 96.4411 238.175 95.2988H238.176C235.494 93.8833 232.505 93.1629 230.274 92.7305C227.805 92.2519 225.067 91.9129 222.298 91.6621C216.748 91.1594 210.284 90.9435 204.059 90.8662C193.525 90.7354 181.937 91.0129 176.979 91.0859L175.282 91.1035L85.2861 91.1436V91.1445C71.8302 91.1124 60.9862 92.2784 49.6025 91.0771C39.0625 89.9649 31.6689 86.9728 26.6055 80.7354C18.4006 70.6274 15.1686 66.6517 12.5 56.9785V46.7637C16.017 33.312 21.4156 24.9024 32.4551 18.0498C37.4071 14.9759 44.1933 13.4891 53.0615 13.0664Z" fill="#FEFE01" stroke="#FF0000" stroke-width="25"/>
<path d="M1511.3 315.159C1561.87 315.16 1611.78 313.961 1661.72 315.032C1657.55 331.938 1649.96 365.865 1642.74 397.803C1638.24 417.705 1633.85 437.073 1630.39 451.678C1628.66 458.992 1627.19 465.028 1626.07 469.311C1625.99 469.645 1625.9 469.965 1625.82 470.272C1607.63 472.166 1589.64 471.021 1569.26 471.498C1510.24 472.878 1450.98 472.227 1391.59 471.931C1382.52 471.885 1373 471.271 1361.93 470.969C1351.45 470.682 1340.21 470.714 1330.19 472.266C1328.36 472.548 1325.55 473.088 1322.69 474.644C1319.55 476.347 1317.28 478.735 1315.59 481.369L1315.59 481.38C1312.71 485.875 1311.83 491.074 1311.44 493.576C1311.08 495.889 1310.24 504.935 1309.57 512.826C1309.23 516.933 1308.91 521.005 1308.69 524.146C1308.58 525.703 1308.5 527.108 1308.45 528.199C1308.42 528.729 1308.4 529.302 1308.4 529.828C1308.4 530.079 1308.4 530.461 1308.43 530.888C1308.44 531.1 1308.46 531.439 1308.51 531.845C1308.54 532.13 1308.65 533.016 1308.98 534.09L1308.98 534.102C1312.29 544.835 1322.19 547.21 1326.97 547.679V547.68C1334.59 548.426 1344.39 547.729 1349.69 547.727L1349.68 547.726L1398.49 547.718H1398.49L1557.28 547.662C1560.04 547.669 1563.9 547.543 1567.89 547.419C1572.01 547.291 1576.5 547.157 1580.86 547.122C1583.73 547.099 1586.43 547.121 1588.86 547.206C1587.53 554.809 1579.25 594.024 1570.73 632.23C1566.49 651.262 1562.23 669.878 1558.79 683.993C1557.07 691.067 1555.58 696.906 1554.42 701.068C1554.21 701.809 1554.02 702.477 1553.84 703.076C1546.63 703.866 1538.12 703.999 1528.95 703.908C1519.15 703.812 1508.2 703.449 1498.98 703.622H1498.97C1449.37 704.61 1399.77 705.18 1350.16 705.335C1337.53 705.364 1322.24 704.75 1308.61 705.246H1308.6C1306.48 705.324 1303.62 705.731 1300.75 706.96C1298 708.142 1293.45 710.911 1291.49 716.672L1291.49 716.679L1291.49 716.686C1289.24 723.332 1288.13 731.141 1287.39 737.953C1286.55 745.585 1286.21 751.166 1285.48 756.776C1282.54 779.031 1280.7 801.342 1278.93 823.312C1277.15 845.381 1275.44 867.088 1272.74 888.64V888.643C1272.15 893.363 1271.44 906.223 1270.56 915.988C1270.07 921.342 1269.5 926.271 1268.83 930.078C1268.81 930.204 1268.78 930.328 1268.76 930.449C1266.35 930.725 1263.38 930.982 1259.93 931.21C1251.64 931.759 1241.22 932.121 1230.48 932.358C1214.39 932.714 1197.94 932.783 1187.46 932.809L1179.21 932.828L1114.47 932.925C1109.45 932.926 1102.61 933.31 1094.53 933.124C1092.06 933.067 1089.81 932.952 1087.88 932.779C1089.61 901.291 1089.81 869.596 1090.52 838.594L1090.68 832.121L1100.01 548.227V548.225C1100.23 541.643 1100.72 535.039 1101.23 528.104C1101.74 521.262 1102.26 514.108 1102.45 506.882V506.88C1103.9 451.108 1104.17 396.202 1106.29 340.893C1106.49 335.772 1106.19 328.55 1106.16 323.327C1106.14 320.219 1106.2 317.575 1106.35 315.404C1108.92 315.345 1112.15 315.289 1115.99 315.238C1126.56 315.099 1141.52 314.997 1159.5 314.926C1195.47 314.783 1243.43 314.76 1292.45 314.795C1390.39 314.864 1492.7 315.159 1511.3 315.159H1511.3ZM1083.02 932.016C1082.89 931.969 1082.9 931.963 1083.03 932.016H1083.02Z" fill="#FEFE01" stroke="#FF0000" stroke-width="25"/>
<path d="M605.558 1019.38C613.357 1018.08 624.208 1017.49 630.657 1018.49C633.405 1018.92 635.793 1019.52 639.681 1020.29C643.112 1020.98 647.349 1021.71 651.758 1021.73H651.771C675.866 1021.82 700.125 1021.71 724.111 1021.71L1196.44 1022.08H1196.45L1295.9 1022.04L1295.89 1022.04C1299.77 1022.04 1304.55 1021.94 1309.52 1021.86C1314.57 1021.77 1319.94 1021.7 1325.24 1021.72C1336.28 1021.78 1345.61 1022.29 1350.86 1023.58H1350.86C1476.13 1054.32 1504.77 1216.3 1394.1 1286.45C1380.15 1295.24 1364.65 1301.28 1348.44 1304.24L1348.37 1304.25C1345.77 1304.74 1342.34 1305.24 1338.41 1305.84C1335.35 1306.31 1331.89 1306.86 1328.93 1307.5H1309.11C1307.99 1307.29 1306.86 1307.07 1305.74 1306.84L1305.71 1306.84L1305.69 1306.83L1303.53 1306.38C1258.49 1296.91 1226.41 1279.89 1200.97 1241.59L1200.97 1241.58L1200.14 1240.32C1182.87 1213.6 1175.3 1179.12 1177.95 1146.69C1178.25 1143.02 1179.47 1137.95 1181.22 1131.64C1182.81 1125.87 1184.91 1118.87 1186.08 1113.04L1187.32 1106.91L1183.16 1102.25L1182.25 1101.23L1180.22 1098.96L1177.38 1097.87L1176.83 1097.67C1174.06 1096.72 1170.77 1096.33 1168.34 1096.09C1165.29 1095.79 1161.63 1095.59 1157.68 1095.45C1149.75 1095.17 1140.02 1095.13 1130.28 1095.2C1109.96 1095.35 1091.45 1095.9 1084.05 1095.92L914.004 1095.95L826.94 1095.52H826.896C814.365 1095.5 800.485 1095.26 787.191 1095.81L784.551 1095.94C783.441 1095.99 780.187 1096.06 777.067 1097.35C773.18 1098.96 770.967 1101.71 769.978 1102.96L767.723 1105.8L767.34 1109.41C767.104 1111.65 767.443 1113.67 767.597 1114.54C767.804 1115.7 768.093 1116.9 768.378 1117.99C768.951 1120.16 769.725 1122.66 770.448 1124.95C772.123 1130.25 773.277 1133.83 773.514 1135.23V1135.23C780.987 1179.73 770.727 1218.67 748.27 1248.43C725.926 1278.04 690.918 1299.32 647.388 1307.5H640.629C634.688 1306.36 628.553 1306.05 623.395 1305.8C617.461 1305.5 612.621 1305.26 608.23 1304.43C569.034 1296.56 534.514 1273.57 512.143 1240.44C503.23 1227.12 495.723 1206.16 492.642 1189.45H492.643C489.424 1171.99 490.028 1152.21 493.676 1134.42C499.634 1105.37 515.369 1076.27 537.772 1058.08C538.994 1057.11 542.081 1055.57 547.61 1052.99C552.007 1050.93 558.436 1048 562.808 1044.71C567.078 1041.5 569.854 1037.84 571.797 1034.97C574.108 1031.56 574.475 1030.69 575.525 1029.41C575.484 1029.48 576.219 1028.8 578.562 1027.65C580.982 1026.45 584.119 1025.22 587.624 1024.04C594.673 1021.69 602.013 1019.97 605.549 1019.38L605.558 1019.38Z" fill="#FEFE01" stroke="#FF0000" stroke-width="25"/>
</g>
<defs>
<clipPath id="clip0_23_5">
<rect width="1676" height="1320" fill="white"/>
</clipPath>
</defs>
</svg>
